<mxfile host="app.diagrams.net" modified="2025-01-15T12:00:00.000Z" agent="5.0 (Windows NT 10.0; Win64; x64) AppleWebKit/537.36" etag="TtalKkak-System-v1.0" version="24.7.17" type="device">
  <diagram name="TtalKkak System Architecture" id="ttalkkak-system-architecture">
    <mxGraphModel dx="2074" dy="1196" grid="1" gridSize="10" guides="1" tooltips="1" connect="1" arrows="1" fold="1" page="1" pageScale="1" pageWidth="2336" pageHeight="1654" math="0" shadow="0">
      <root>
        <mxCell id="0" />
        <mxCell id="1" parent="0" />
        
        <!-- 제목 -->
        <mxCell id="title" value="TtalKkak AI 프로젝트 관리 시스템 아키텍처" style="text;html=1;strokeColor=none;fillColor=none;align=center;verticalAlign=middle;whiteSpace=wrap;rounded=0;fontSize=28;fontStyle=1;fontColor=#1976D2;fontFamily=Helvetica;" vertex="1" parent="1">
          <mxGeometry x="668" y="20" width="1000" height="50" as="geometry" />
        </mxCell>
        
        <!-- 1. User Input Layer -->
        <mxCell id="user_input_layer" value="" style="rounded=1;whiteSpace=wrap;html=1;fillColor=#E3F2FD;strokeColor=#1976D2;strokeWidth=3;dashed=1;dashPattern=8 8;" vertex="1" parent="1">
          <mxGeometry x="80" y="100" width="300" height="200" as="geometry" />
        </mxCell>
        
        <mxCell id="user_input_title" value="👥 사용자 입력 레이어" style="text;html=1;strokeColor=none;fillColor=none;align=center;verticalAlign=middle;whiteSpace=wrap;rounded=0;fontSize=16;fontStyle=1;fontColor=#1976D2;fontFamily=Helvetica;" vertex="1" parent="1">
          <mxGeometry x="80" y="110" width="300" height="30" as="geometry" />
        </mxCell>
        
        <mxCell id="user" value="👤 사용자" style="rounded=1;whiteSpace=wrap;html=1;fillColor=#BBDEFB;strokeColor=#1976D2;strokeWidth=2;fontSize=14;fontStyle=1;" vertex="1" parent="1">
          <mxGeometry x="190" y="150" width="80" height="40" as="geometry" />
        </mxCell>
        
        <mxCell id="slack_command" value="/tk start&#xa;명령어" style="rounded=1;whiteSpace=wrap;html=1;fillColor=#90CAF9;strokeColor=#1976D2;strokeWidth=2;fontSize=12;" vertex="1" parent="1">
          <mxGeometry x="100" y="210" width="80" height="50" as="geometry" />
        </mxCell>
        
        <mxCell id="voice_upload" value="🎤 음성파일&#xa;업로드&#xa;(.mp3, .wav)" style="rounded=1;whiteSpace=wrap;html=1;fillColor=#90CAF9;strokeColor=#1976D2;strokeWidth=2;fontSize=11;" vertex="1" parent="1">
          <mxGeometry x="190" y="210" width="80" height="60" as="geometry" />
        </mxCell>
        
        <mxCell id="text_input" value="📝 회의록&#xa;텍스트 입력&#xa;(50-3000자)" style="rounded=1;whiteSpace=wrap;html=1;fillColor=#90CAF9;strokeColor=#1976D2;strokeWidth=2;fontSize=11;" vertex="1" parent="1">
          <mxGeometry x="280" y="210" width="80" height="60" as="geometry" />
        </mxCell>
        
        <!-- 2. Slack Processing Layer -->
        <mxCell id="slack_layer" value="" style="rounded=1;whiteSpace=wrap;html=1;fillColor=#FFF3E0;strokeColor=#F57C00;strokeWidth=3;dashed=1;dashPattern=8 8;" vertex="1" parent="1">
          <mxGeometry x="420" y="100" width="350" height="200" as="geometry" />
        </mxCell>
        
        <mxCell id="slack_title" value="💬 Slack 처리 레이어" style="text;html=1;strokeColor=none;fillColor=none;align=center;verticalAlign=middle;whiteSpace=wrap;rounded=0;fontSize=16;fontStyle=1;fontColor=#F57C00;fontFamily=Helvetica;" vertex="1" parent="1">
          <mxGeometry x="420" y="110" width="350" height="30" as="geometry" />
        </mxCell>
        
        <mxCell id="slack_bot" value="🤖 Slack Bot App&#xa;@slack/bolt&#xa;이벤트 처리" style="rounded=1;whiteSpace=wrap;html=1;fillColor=#FFCC80;strokeColor=#F57C00;strokeWidth=2;fontSize=12;" vertex="1" parent="1">
          <mxGeometry x="440" y="150" width="120" height="60" as="geometry" />
        </mxCell>
        
        <mxCell id="modal_ui" value="📋 Modal UI&#xa;텍스트 입력창&#xa;파일 업로드 UI" style="rounded=1;whiteSpace=wrap;html=1;fillColor=#FFB74D;strokeColor=#F57C00;strokeWidth=2;fontSize=11;" vertex="1" parent="1">
          <mxGeometry x="580" y="150" width="100" height="60" as="geometry" />
        </mxCell>
        
        <mxCell id="oauth_buttons" value="🔗 OAuth 연동 버튼&#xa;• Notion 연동&#xa;• JIRA 연동&#xa;• 상태 확인" style="rounded=1;whiteSpace=wrap;html=1;fillColor=#FFB74D;strokeColor=#F57C00;strokeWidth=2;fontSize=11;" vertex="1" parent="1">
          <mxGeometry x="440" y="220" width="120" height="70" as="geometry" />
        </mxCell>
        
        <mxCell id="webhook_sender" value="📡 Webhook&#xa;POST /slack/events&#xa;ngrok 터널" style="rounded=1;whiteSpace=wrap;html=1;fillColor=#FFA726;strokeColor=#F57C00;strokeWidth=2;fontSize=11;" vertex="1" parent="1">
          <mxGeometry x="580" y="230" width="100" height="60" as="geometry" />
        </mxCell>
        
        <!-- 3. Network Layer -->
        <mxCell id="network_layer" value="" style="rounded=1;whiteSpace=wrap;html=1;fillColor=#F1F8E9;strokeColor=#689F38;strokeWidth=3;dashed=1;dashPattern=8 8;" vertex="1" parent="1">
          <mxGeometry x="810" y="100" width="200" height="200" as="geometry" />
        </mxCell>
        
        <mxCell id="network_title" value="🌐 네트워크 레이어" style="text;html=1;strokeColor=none;fillColor=none;align=center;verticalAlign=middle;whiteSpace=wrap;rounded=0;fontSize=16;fontStyle=1;fontColor=#689F38;fontFamily=Helvetica;" vertex="1" parent="1">
          <mxGeometry x="810" y="110" width="200" height="30" as="geometry" />
        </mxCell>
        
        <mxCell id="ngrok_tunnel" value="🌉 ngrok Tunnel&#xa;HTTPS 터널링&#xa;localhost:3500&#xa;→ ngrok URL" style="rounded=1;whiteSpace=wrap;html=1;fillColor=#C8E6C9;strokeColor=#689F38;strokeWidth=2;fontSize=11;" vertex="1" parent="1">
          <mxGeometry x="830" y="150" width="160" height="80" as="geometry" />
        </mxCell>
        
        <mxCell id="ssl_security" value="🔒 SSL/TLS 보안&#xa;암호화 통신&#xa;Webhook 검증" style="rounded=1;whiteSpace=wrap;html=1;fillColor=#A5D6A7;strokeColor=#689F38;strokeWidth=2;fontSize=11;" vertex="1" parent="1">
          <mxGeometry x="830" y="240" width="160" height="50" as="geometry" />
        </mxCell>
        
        <!-- 4. Backend Processing Layer -->
        <mxCell id="backend_layer" value="" style="rounded=1;whiteSpace=wrap;html=1;fillColor=#F3E5F5;strokeColor=#7B1FA2;strokeWidth=3;dashed=1;dashPattern=8 8;" vertex="1" parent="1">
          <mxGeometry x="80" y="340" width="930" height="280" as="geometry" />
        </mxCell>
        
        <mxCell id="backend_title" value="🏗️ 백엔드 처리 레이어" style="text;html=1;strokeColor=none;fillColor=none;align=center;verticalAlign=middle;whiteSpace=wrap;rounded=0;fontSize=16;fontStyle=1;fontColor=#7B1FA2;fontFamily=Helvetica;" vertex="1" parent="1">
          <mxGeometry x="80" y="350" width="930" height="30" as="geometry" />
        </mxCell>
        
        <!-- Express Server -->
        <mxCell id="express_server" value="⚡ Express.js Server&#xa;Port: 3500&#xa;Node.js + TypeScript&#xa;RESTful API" style="rounded=1;whiteSpace=wrap;html=1;fillColor=#E1BEE7;strokeColor=#7B1FA2;strokeWidth=2;fontSize=12;" vertex="1" parent="1">
          <mxGeometry x="100" y="390" width="140" height="80" as="geometry" />
        </mxCell>
        
        <!-- Slack Handler -->
        <mxCell id="slack_handler" value="🎯 Slack Handler&#xa;slack-handler.js&#xa;이벤트 처리&#xa;모달 관리" style="rounded=1;whiteSpace=wrap;html=1;fillColor=#D1C4E9;strokeColor=#7B1FA2;strokeWidth=2;fontSize=11;" vertex="1" parent="1">
          <mxGeometry x="260" y="390" width="120" height="80" as="geometry" />
        </mxCell>
        
        <!-- Middleware Stack -->
        <mxCell id="middleware_stack" value="" style="rounded=1;whiteSpace=wrap;html=1;fillColor=#EDE7F6;strokeColor=#7B1FA2;strokeWidth=2;dashed=1;" vertex="1" parent="1">
          <mxGeometry x="400" y="385" width="250" height="90" as="geometry" />
        </mxCell>
        
        <mxCell id="middleware_title" value="🔒 미들웨어 스택" style="text;html=1;strokeColor=none;fillColor=none;align=center;verticalAlign=middle;whiteSpace=wrap;rounded=0;fontSize=13;fontStyle=1;fontColor=#7B1FA2;" vertex="1" parent="1">
          <mxGeometry x="400" y="390" width="250" height="25" as="geometry" />
        </mxCell>
        
        <mxCell id="tenant_middleware" value="🏢 Tenant&#xa;Middleware" style="rounded=1;whiteSpace=wrap;html=1;fillColor=#CE93D8;strokeColor=#7B1FA2;strokeWidth=1;fontSize=10;" vertex="1" parent="1">
          <mxGeometry x="415" y="420" width="70" height="45" as="geometry" />
        </mxCell>
        
        <mxCell id="auth_middleware" value="🛡️ Auth&#xa;Middleware" style="rounded=1;whiteSpace=wrap;html=1;fillColor=#CE93D8;strokeColor=#7B1FA2;strokeWidth=1;fontSize=10;" vertex="1" parent="1">
          <mxGeometry x="495" y="420" width="70" height="45" as="geometry" />
        </mxCell>
        
        <mxCell id="rate_limiting" value="⏱️ Rate&#xa;Limiting" style="rounded=1;whiteSpace=wrap;html=1;fillColor=#CE93D8;strokeColor=#7B1FA2;strokeWidth=1;fontSize=10;" vertex="1" parent="1">
          <mxGeometry x="575" y="420" width="60" height="45" as="geometry" />
        </mxCell>
        
        <!-- Data Processing -->
        <mxCell id="data_processing" value="" style="rounded=1;whiteSpace=wrap;html=1;fillColor=#EDE7F6;strokeColor=#7B1FA2;strokeWidth=2;dashed=1;" vertex="1" parent="1">
          <mxGeometry x="670" y="385" width="320" height="180" as="geometry" />
        </mxCell>
        
        <mxCell id="data_processing_title" value="📊 데이터 처리" style="text;html=1;strokeColor=none;fillColor=none;align=center;verticalAlign=middle;whiteSpace=wrap;rounded=0;fontSize=13;fontStyle=1;fontColor=#7B1FA2;" vertex="1" parent="1">
          <mxGeometry x="670" y="390" width="320" height="25" as="geometry" />
        </mxCell>
        
        <mxCell id="input_validation" value="✅ Input Validation&#xa;• 텍스트 길이 검증&#xa;• 파일 형식 검증&#xa;• 사용자 권한 확인" style="rounded=1;whiteSpace=wrap;html=1;fillColor=#B39DDB;strokeColor=#7B1FA2;strokeWidth=1;fontSize=10;" vertex="1" parent="1">
          <mxGeometry x="685" y="420" width="140" height="60" as="geometry" />
        </mxCell>
        
        <mxCell id="session_manager" value="📝 Session Manager&#xa;• 세션 ID 생성&#xa;• 처리 상태 추적&#xa;• 타임아웃 관리" style="rounded=1;whiteSpace=wrap;html=1;fillColor=#B39DDB;strokeColor=#7B1FA2;strokeWidth=1;fontSize=10;" vertex="1" parent="1">
          <mxGeometry x="835" y="420" width="140" height="60" as="geometry" />
        </mxCell>
        
        <mxCell id="context_builder" value="🎯 Context Builder&#xa;tenantId: dev-tenant&#xa;userId: U123456789&#xa;sessionId: sess_xxx&#xa;timestamp: ISO" style="rounded=1;whiteSpace=wrap;html=1;fillColor=#9575CD;strokeColor=#7B1FA2;strokeWidth=1;fontSize=10;" vertex="1" parent="1">
          <mxGeometry x="685" y="490" width="290" height="65" as="geometry" />
        </mxCell>
        
        <!-- Services -->
        <mxCell id="ai_service" value="🤖 AI Service&#xa;ai-service.ts&#xa;RunPod 연동" style="rounded=1;whiteSpace=wrap;html=1;fillColor=#D1C4E9;strokeColor=#7B1FA2;strokeWidth=2;fontSize=11;" vertex="1" parent="1">
          <mxGeometry x="100" y="490" width="110" height="60" as="geometry" />
        </mxCell>
        
        <mxCell id="notion_service" value="📝 Notion Service&#xa;notion-service.ts&#xa;페이지 생성" style="rounded=1;whiteSpace=wrap;html=1;fillColor=#D1C4E9;strokeColor=#7B1FA2;strokeWidth=2;fontSize=11;" vertex="1" parent="1">
          <mxGeometry x="220" y="490" width="110" height="60" as="geometry" />
        </mxCell>
        
        <mxCell id="jira_service" value="🎫 JIRA Service&#xa;jira-service.ts&#xa;이슈 생성" style="rounded=1;whiteSpace=wrap;html=1;fillColor=#D1C4E9;strokeColor=#7B1FA2;strokeWidth=2;fontSize=11;" vertex="1" parent="1">
          <mxGeometry x="340" y="490" width="110" height="60" as="geometry" />
        </mxCell>
        
        <!-- 5. AI Processing Layer -->
        <mxCell id="ai_layer" value="" style="rounded=1;whiteSpace=wrap;html=1;fillColor=#FFF8E1;strokeColor=#FFA000;strokeWidth=3;dashed=1;dashPattern=8 8;" vertex="1" parent="1">
          <mxGeometry x="1060" y="100" width="600" height="520" as="geometry" />
        </mxCell>
        
        <mxCell id="ai_layer_title" value="🤖 AI 처리 레이어 (RunPod A100 80GB)" style="text;html=1;strokeColor=none;fillColor=none;align=center;verticalAlign=middle;whiteSpace=wrap;rounded=0;fontSize=16;fontStyle=1;fontColor=#FFA000;fontFamily=Helvetica;" vertex="1" parent="1">
          <mxGeometry x="1060" y="110" width="600" height="30" as="geometry" />
        </mxCell>
        
        <!-- AI Server -->
        <mxCell id="ai_server" value="🚀 AI Server&#xa;ai_server_final.py&#xa;Port: 8000&#xa;Python FastAPI&#xa;Ubuntu 22.04" style="rounded=1;whiteSpace=wrap;html=1;fillColor=#FFE082;strokeColor=#FFA000;strokeWidth=2;fontSize=12;" vertex="1" parent="1">
          <mxGeometry x="1080" y="150" width="150" height="80" as="geometry" />
        </mxCell>
        
        <!-- AI Models -->
        <mxCell id="stt_engine" value="🎤 Speech-to-Text&#xa;Whisper Large-v3&#xa;다국어 지원&#xa;고정밀 전사&#xa;배치 처리" style="rounded=1;whiteSpace=wrap;html=1;fillColor=#FFCC02;strokeColor=#FFA000;strokeWidth=2;fontSize=11;" vertex="1" parent="1">
          <mxGeometry x="1250" y="150" width="130" height="80" as="geometry" />
        </mxCell>
        
        <mxCell id="llm_engine" value="🧠 LLM Engine&#xa;Qwen3-32B-AWQ&#xa;32GB VRAM&#xa;고성능 추론&#xa;양자화 최적화" style="rounded=1;whiteSpace=wrap;html=1;fillColor=#FFB300;strokeColor=#FFA000;strokeWidth=2;fontSize=11;" vertex="1" parent="1">
          <mxGeometry x="1400" y="150" width="130" height="80" as="geometry" />
        </mxCell>
        
        <mxCell id="model_loader" value="🔄 Model Loader&#xa;동적 모델 로딩&#xa;메모리 최적화&#xa;캐시 관리" style="rounded=1;whiteSpace=wrap;html=1;fillColor="#FFC107;strokeColor=#FFA000;strokeWidth=2;fontSize=11;" vertex="1" parent="1">
          <mxGeometry x="1550" y="150" width="100" height="80" as="geometry" />
        </mxCell>
        
        <!-- TaskMaster Pipeline -->
        <mxCell id="taskmaster_pipeline" value="" style="rounded=1;whiteSpace=wrap;html=1;fillColor=#FFF3E0;strokeColor=#FFA000;strokeWidth=2;dashed=1;" vertex="1" parent="1">
          <mxGeometry x="1080" y="250" width="570" height="200" as="geometry" />
        </mxCell>
        
        <mxCell id="taskmaster_title" value="📋 TaskMaster 파이프라인" style="text;html=1;strokeColor=none;fillColor=none;align=center;verticalAlign=middle;whiteSpace=wrap;rounded=0;fontSize=14;fontStyle=1;fontColor=#FFA000;" vertex="1" parent="1">
          <mxGeometry x="1080" y="260" width="570" height="25" as="geometry" />
        </mxCell>
        
        <mxCell id="prd_generator" value="📄 PRD Generator&#xa;회의록 → PRD&#xa;구조화된 요구사항&#xa;비즈니스 로직 분석" style="rounded=1;whiteSpace=wrap;html=1;fillColor=#FFCC02;strokeColor=#FFA000;strokeWidth=1;fontSize=10;" vertex="1" parent="1">
          <mxGeometry x="1100" y="295" width="110" height="70" as="geometry" />
        </mxCell>
        
        <mxCell id="task_generator" value="⚙️ Task Generator&#xa;PRD → Task 분해&#xa;우선순위 결정&#xa;의존성 분석" style="rounded=1;whiteSpace=wrap;html=1;fillColor=#FFCC02;strokeColor=#FFA000;strokeWidth=1;fontSize=10;" vertex="1" parent="1">
          <mxGeometry x="1220" y="295" width="110" height="70" as="geometry" />
        </mxCell>
        
        <mxCell id="subtask_generator" value="🔧 Subtask Generator&#xa;Task → Subtask&#xa;시간 추정&#xa;기술 요구사항" style="rounded=1;whiteSpace=wrap;html=1;fillColor=#FFCC02;strokeColor=#FFA000;strokeWidth=1;fontSize=10;" vertex="1" parent="1">
          <mxGeometry x="1340" y="295" width="110" height="70" as="geometry" />
        </mxCell>
        
        <mxCell id="assignment_engine" value="👥 Assignment Engine&#xa;팀원 기술 매칭&#xa;워크로드 밸런싱&#xa;성능 예측" style="rounded=1;whiteSpace=wrap;html=1;fillColor=#FFCC02;strokeColor=#FFA000;strokeWidth=1;fontSize=10;" vertex="1" parent="1">
          <mxGeometry x="1460" y="295" width="120" height="70" as="geometry" />
        </mxCell>
        
        <mxCell id="quality_validator" value="✅ Quality Validator&#xa;결과 검증&#xa;일관성 체크&#xa;오류 수정" style="rounded=1;whiteSpace=wrap;html=1;fillColor=#FF8F00;strokeColor=#FFA000;strokeWidth=1;fontSize=10;" vertex="1" parent="1">
          <mxGeometry x="1100" y="375" width="110" height="60" as="geometry" />
        </mxCell>
        
        <mxCell id="json_formatter" value="🔧 JSON Formatter&#xa;구조화된 응답&#xa;스키마 검증&#xa;타입 안전성" style="rounded=1;whiteSpace=wrap;html=1;fillColor=#FF8F00;strokeColor=#FFA000;strokeWidth=1;fontSize=10;" vertex="1" parent="1">
          <mxGeometry x="1220" y="375" width="110" height="60" as="geometry" />
        </mxCell>
        
        <mxCell id="response_builder" value="🎯 Response Builder&#xa;최종 응답 생성&#xa;메타데이터 포함&#xa;성능 지표" style="rounded=1;whiteSpace=wrap;html=1;fillColor=#FF8F00;strokeColor=#FFA000;strokeWidth=1;fontSize=10;" vertex="1" parent="1">
          <mxGeometry x="1340" y="375" width="110" height="60" as="geometry" />
        </mxCell>
        
        <!-- AI Performance Metrics -->
        <mxCell id="ai_metrics" value="📊 AI 성능 지표&#xa;평균 처리 시간: 45초&#xa;성공률: 98.5%&#xa;동시 처리: 5개 세션&#xa;GPU 사용률: 70%&#xa;메모리 사용량: 25GB" style="rounded=1;whiteSpace=wrap;html=1;fillColor=#FFE57F;strokeColor=#FFA000;strokeWidth=2;fontSize=10;" vertex="1" parent="1">
          <mxGeometry x="1470" y="375" width="170" height="100" as="geometry" />
        </mxCell>
        
        <!-- GPU Resource Info -->
        <mxCell id="gpu_info" value="🖥️ GPU 리소스&#xa;NVIDIA A100 80GB&#xa;CUDA 12.0&#xa;온도: 65°C&#xa;팬 속도: 65%&#xa;전력 소비: 350W" style="rounded=1;whiteSpace=wrap;html=1;fillColor=#FFE57F;strokeColor=#FFA000;strokeWidth=2;fontSize=10;" vertex="1" parent="1">
          <mxGeometry x="1080" y="470" width="150" height="100" as="geometry" />
        </mxCell>
        
        <!-- 6. Database Layer -->
        <mxCell id="database_layer" value="" style="rounded=1;whiteSpace=wrap;html=1;fillColor=#E8F5E8;strokeColor=#388E3C;strokeWidth=3;dashed=1;dashPattern=8 8;" vertex="1" parent="1">
          <mxGeometry x="80" y="660" width="930" height="220" as="geometry" />
        </mxCell>
        
        <mxCell id="database_title" value="🗄️ 데이터베이스 레이어" style="text;html=1;strokeColor=none;fillColor=none;align=center;verticalAlign=middle;whiteSpace=wrap;rounded=0;fontSize=16;fontStyle=1;fontColor=#388E3C;fontFamily=Helvetica;" vertex="1" parent="1">
          <mxGeometry x="80" y="670" width="930" height="30" as="geometry" />
        </mxCell>
        
        <!-- PostgreSQL -->
        <mxCell id="postgresql" value="🐘 PostgreSQL&#xa;Port: 5432&#xa;WSL Ubuntu&#xa;버전: 15.0&#xa;UTF-8 인코딩" style="rounded=1;whiteSpace=wrap;html=1;fillColor=#A5D6A7;strokeColor=#388E3C;strokeWidth=2;fontSize=11;" vertex="1" parent="1">
          <mxGeometry x="100" y="710" width="120" height="80" as="geometry" />
        </mxCell>
        
        <!-- Prisma ORM -->
        <mxCell id="prisma_orm" value="🔧 Prisma ORM&#xa;타입 안전성&#xa;자동 마이그레이션&#xa;쿼리 최적화&#xa;관계 관리" style="rounded=1;whiteSpace=wrap;html=1;fillColor=#81C784;strokeColor=#388E3C;strokeWidth=2;fontSize=11;" vertex="1" parent="1">
          <mxGeometry x="240" y="710" width="120" height="80" as="geometry" />
        </mxCell>
        
        <!-- Redis Cache -->
        <mxCell id="redis_cache" value="⚡ Redis Cache&#xa;세션 캐시&#xa;결과 캐시&#xa;실시간 데이터&#xa;TTL 관리" style="rounded=1;whiteSpace=wrap;html=1;fillColor=#66BB6A;strokeColor=#388E3C;strokeWidth=2;fontSize=11;" vertex="1" parent="1">
          <mxGeometry x="380" y="710" width="120" height="80" as="geometry" />
        </mxCell>
        
        <!-- Database Tables -->
        <mxCell id="database_schema" value="" style="rounded=1;whiteSpace=wrap;html=1;fillColor=#F1F8E9;strokeColor=#388E3C;strokeWidth=2;dashed=1;" vertex="1" parent="1">
          <mxGeometry x="520" y="705" width="470" height="160" as="geometry" />
        </mxCell>
        
        <mxCell id="schema_title" value="📊 데이터베이스 스키마" style="text;html=1;strokeColor=none;fillColor=none;align=center;verticalAlign=middle;whiteSpace=wrap;rounded=0;fontSize=13;fontStyle=1;fontColor=#388E3C;" vertex="1" parent="1">
          <mxGeometry x="520" y="710" width="470" height="25" as="geometry" />
        </mxCell>
        
        <mxCell id="users_table" value="👤 Users&#xa;id, name, email&#xa;slack_id, tenant_id&#xa;created_at" style="rounded=1;whiteSpace=wrap;html=1;fillColor=#C8E6C9;strokeColor=#388E3C;strokeWidth=1;fontSize=10;" vertex="1" parent="1">
          <mxGeometry x="535" y="740" width="90" height="55" as="geometry" />
        </mxCell>
        
        <mxCell id="integrations_table" value="🔗 Integrations&#xa;service_type&#xa;access_token&#xa;refresh_token&#xa;config (JSON)" style="rounded=1;whiteSpace=wrap;html=1;fillColor=#C8E6C9;strokeColor=#388E3C;strokeWidth=1;fontSize=10;" vertex="1" parent="1">
          <mxGeometry x="635" y="740" width="90" height="55" as="geometry" />
        </mxCell>
        
        <mxCell id="sessions_table" value="📝 Sessions&#xa;session_id, user_id&#xa;input_type, status&#xa;created_at&#xa;updated_at" style="rounded=1;whiteSpace=wrap;html=1;fillColor=#C8E6C9;strokeColor=#388E3C;strokeWidth=1;fontSize=10;" vertex="1" parent="1">
          <mxGeometry x="735" y="740" width="90" height="55" as="geometry" />
        </mxCell>
        
        <mxCell id="projects_table" value="📂 Projects&#xa;title, overview&#xa;tenant_id&#xa;creator_id&#xa;status" style="rounded=1;whiteSpace=wrap;html=1;fillColor=#C8E6C9;strokeColor=#388E3C;strokeWidth=1;fontSize=10;" vertex="1" parent="1">
          <mxGeometry x="835" y="740" width="90" height="55" as="geometry" />
        </mxCell>
        
        <mxCell id="tasks_table" value="📋 Tasks&#xa;title, description&#xa;priority, complexity&#xa;estimated_hours&#xa;assignee_id" style="rounded=1;whiteSpace=wrap;html=1;fillColor=#C8E6C9;strokeColor=#388E3C;strokeWidth=1;fontSize=10;" vertex="1" parent="1">
          <mxGeometry x="535" y="805" width="90" height="55" as="geometry" />
        </mxCell>
        
        <mxCell id="subtasks_table" value="🔧 Subtasks&#xa;task_id, title&#xa;description&#xa;estimated_hours&#xa;prerequisites" style="rounded=1;whiteSpace=wrap;html=1;fillColor=#C8E6C9;strokeColor=#388E3C;strokeWidth=1;fontSize=10;" vertex="1" parent="1">
          <mxGeometry x="635" y="805" width="90" height="55" as="geometry" />
        </mxCell>
        
        <mxCell id="logs_table" value="📜 Logs&#xa;action, service&#xa;request, response&#xa;timestamp&#xa;user_id" style="rounded=1;whiteSpace=wrap;html=1;fillColor=#A5D6A7;strokeColor=#388E3C;strokeWidth=1;fontSize=10;" vertex="1" parent="1">
          <mxGeometry x="735" y="805" width="90" height="55" as="geometry" />
        </mxCell>
        
        <mxCell id="metrics_table" value="📈 Metrics&#xa;processing_time&#xa;success_rate&#xa;error_count&#xa;usage_stats" style="rounded=1;whiteSpace=wrap;html=1;fillColor=#A5D6A7;strokeColor=#388E3C;strokeWidth=1;fontSize=10;" vertex="1" parent="1">
          <mxGeometry x="835" y="805" width="90" height="55" as="geometry" />
        </mxCell>
        
        <!-- 7. External Integration Layer -->
        <mxCell id="integration_layer" value="" style="rounded=1;whiteSpace=wrap;html=1;fillColor=#FCE4EC;strokeColor=#C2185B;strokeWidth=3;dashed=1;dashPattern=8 8;" vertex="1" parent="1">
          <mxGeometry x="1060" y="660" width="1200" height="220" as="geometry" />
        </mxCell>
        
        <mxCell id="integration_title" value="🔗 외부 연동 레이어" style="text;html=1;strokeColor=none;fillColor=none;align=center;verticalAlign=middle;whiteSpace=wrap;rounded=0;fontSize=16;fontStyle=1;fontColor=#C2185B;fontFamily=Helvetica;" vertex="1" parent="1">
          <mxGeometry x="1060" y="670" width="1200" height="30" as="geometry" />
        </mxCell>
        
        <!-- Notion Integration -->
        <mxCell id="notion_integration" value="" style="rounded=1;whiteSpace=wrap;html=1;fillColor=#F8BBD9;strokeColor=#C2185B;strokeWidth=2;dashed=1;" vertex="1" parent="1">
          <mxGeometry x="1080" y="710" width="380" height="150" as="geometry" />
        </mxCell>
        
        <mxCell id="notion_title" value="📝 Notion Integration" style="text;html=1;strokeColor=none;fillColor=none;align=center;verticalAlign=middle;whiteSpace=wrap;rounded=0;fontSize=13;fontStyle=1;fontColor=#C2185B;" vertex="1" parent="1">
          <mxGeometry x="1080" y="715" width="380" height="25" as="geometry" />
        </mxCell>
        
        <mxCell id="notion_oauth" value="🔐 Notion OAuth 2.0&#xa;GET /auth/notion/:tenant&#xa;사용자별 워크스페이스&#xa;자동 토큰 갱신" style="rounded=1;whiteSpace=wrap;html=1;fillColor=#F48FB1;strokeColor=#C2185B;strokeWidth=1;fontSize=10;" vertex="1" parent="1">
          <mxGeometry x="1100" y="750" width="110" height="60" as="geometry" />
        </mxCell>
        
        <mxCell id="notion_service_detail" value="📝 NotionService&#xa;notion-service.ts&#xa;페이지 생성 로직&#xa;블록 구조 관리" style="rounded=1;whiteSpace=wrap;html=1;fillColor=#F48FB1;strokeColor=#C2185B;strokeWidth=1;fontSize=10;" vertex="1" parent="1">
          <mxGeometry x="1220" y="750" width="110" height="60" as="geometry" />
        </mxCell>
        
        <mxCell id="notion_api" value="🌐 Notion API&#xa;api.notion.com&#xa;블록 기반 생성&#xa;실시간 동기화" style="rounded=1;whiteSpace=wrap;html=1;fillColor=#F48FB1;strokeColor=#C2185B;strokeWidth=1;fontSize=10;" vertex="1" parent="1">
          <mxGeometry x="1340" y="750" width="110" height="60" as="geometry" />
        </mxCell>
        
        <mxCell id="notion_template" value="📄 Template Structure&#xa;🔔 Header + Title&#xa;🧭 Navigation&#xa;📊 Work Table&#xa;📋 Planning Section&#xa;📅 Calendar View" style="rounded=1;whiteSpace=wrap;html=1;fillColor=#EC407A;strokeColor=#C2185B;strokeWidth=1;fontSize=9;" vertex="1" parent="1">
          <mxGeometry x="1100" y="820" width="120" height="30" as="geometry" />
        </mxCell>
        
        <mxCell id="notion_features" value="✨ Advanced Features&#xa;• 동적 속성 생성&#xa;• 관계형 데이터베이스&#xa;• 자동 백업&#xa;• 버전 관리" style="rounded=1;whiteSpace=wrap;html=1;fillColor=#EC407A;strokeColor=#C2185B;strokeWidth=1;fontSize=9;" vertex="1" parent="1">
          <mxGeometry x="1230" y="820" width="120" height="30" as="geometry" />
        </mxCell>
        
        <mxCell id="notion_metrics" value="📊 Notion 지표&#xa;• 생성률: 99.2%&#xa;• 평균 응답: 2.3초&#xa;• 사용자 만족도: 4.8/5" style="rounded=1;whiteSpace=wrap;html=1;fillColor=#EC407A;strokeColor=#C2185B;strokeWidth=1;fontSize=9;" vertex="1" parent="1">
          <mxGeometry x="1360" y="820" width="90" height="30" as="geometry" />
        </mxCell>
        
        <!-- JIRA Integration -->
        <mxCell id="jira_integration" value="" style="rounded=1;whiteSpace=wrap;html=1;fillColor=#F8BBD9;strokeColor=#C2185B;strokeWidth=2;dashed=1;" vertex="1" parent="1">
          <mxGeometry x="1480" y="710" width="380" height="150" as="geometry" />
        </mxCell>
        
        <mxCell id="jira_title" value="🎫 JIRA Integration" style="text;html=1;strokeColor=none;fillColor=none;align=center;verticalAlign=middle;whiteSpace=wrap;rounded=0;fontSize=13;fontStyle=1;fontColor=#C2185B;" vertex="1" parent="1">
          <mxGeometry x="1480" y="715" width="380" height="25" as="geometry" />
        </mxCell>
        
        <mxCell id="jira_oauth" value="🔐 JIRA OAuth 2.0&#xa;Atlassian 3LO&#xa;auth.atlassian.com&#xa;스코프 관리" style="rounded=1;whiteSpace=wrap;html=1;fillColor=#F48FB1;strokeColor=#C2185B;strokeWidth=1;fontSize=10;" vertex="1" parent="1">
          <mxGeometry x="1500" y="750" width="100" height="60" as="geometry" />
        </mxCell>
        
        <mxCell id="jira_service_detail" value="🎫 JiraService&#xa;jira-service.ts&#xa;이슈 생성 로직&#xa;Epic-Task 매핑" style="rounded=1;whiteSpace=wrap;html=1;fillColor=#F48FB1;strokeColor=#C2185B;strokeWidth=1;fontSize=10;" vertex="1" parent="1">
          <mxGeometry x="1610" y="750" width="100" height="60" as="geometry" />
        </mxCell>
        
        <mxCell id="jira_api" value="🌐 JIRA REST API&#xa;your-domain&#xa;.atlassian.net&#xa;v3 API 사용" style="rounded=1;whiteSpace=wrap;html=1;fillColor=#F48FB1;strokeColor=#C2185B;strokeWidth=1;fontSize=10;" vertex="1" parent="1">
          <mxGeometry x="1720" y="750" width="100" height="60" as="geometry" />
        </mxCell>
        
        <mxCell id="jira_mapping" value="🏗️ Issue Mapping&#xa;TaskMaster TASK → Epic&#xa;TaskMaster SUBTASK → Task&#xa;Epic Link 자동 연결" style="rounded=1;whiteSpace=wrap;html=1;fillColor=#EC407A;strokeColor=#C2185B;strokeWidth=1;fontSize=9;" vertex="1" parent="1">
          <mxGeometry x="1500" y="820" width="110" height="30" as="geometry" />
        </mxCell>
        
        <mxCell id="jira_priority" value="⚡ Priority Mapping&#xa;HIGH → High&#xa;MEDIUM → Medium&#xa;LOW → Low" style="rounded=1;whiteSpace=wrap;html=1;fillColor=#EC407A;strokeColor=#C2185B;strokeWidth=1;fontSize=9;" vertex="1" parent="1">
          <mxGeometry x="1620" y="820" width="100" height="30" as="geometry" />
        </mxCell>
        
        <mxCell id="jira_advanced" value="🔧 Advanced Features&#xa;• 자동 스프린트 할당&#xa;• 워크플로우 연동&#xa;• 커스텀 필드" style="rounded=1;whiteSpace=wrap;html=1;fillColor=#EC407A;strokeColor=#C2185B;strokeWidth=1;fontSize=9;" vertex="1" parent="1">
          <mxGeometry x="1730" y="820" width="90" height="30" as="geometry" />
        </mxCell>
        
        <!-- Future Integrations -->
        <mxCell id="future_integrations" value="🔮 Future Integrations&#xa;&#xa;🐙 GitHub&#xa;• 이슈 생성&#xa;• PR 추적&#xa;• 코드 리뷰&#xa;&#xa;📚 Confluence&#xa;• 문서 자동 생성&#xa;• 지식 베이스&#xa;&#xa;📌 Trello&#xa;• 칸반 보드&#xa;• 카드 자동 생성&#xa;&#xa;💬 Discord&#xa;• 알림 연동&#xa;• 채널 관리" style="rounded=1;whiteSpace=wrap;html=1;fillColor=#E91E63;strokeColor=#C2185B;strokeWidth=2;fontSize=9;align=left;verticalAlign=top;" vertex="1" parent="1">
          <mxGeometry x="1880" y="710" width="120" height="150" as="geometry" />
        </mxCell>
        
        <!-- 8. Response & Result Layer -->
        <mxCell id="response_layer" value="" style="rounded=1;whiteSpace=wrap;html=1;fillColor=#E0F2F1;strokeColor=#00695C;strokeWidth=3;dashed=1;dashPattern=8 8;" vertex="1" parent="1">
          <mxGeometry x="80" y="920" width="1200" height="180" as="geometry" />
        </mxCell>
        
        <mxCell id="response_title" value="📤 응답 및 결과 레이어" style="text;html=1;strokeColor=none;fillColor=none;align=center;verticalAlign=middle;whiteSpace=wrap;rounded=0;fontSize=16;fontStyle=1;fontColor=#00695C;fontFamily=Helvetica;" vertex="1" parent="1">
          <mxGeometry x="80" y="930" width="1200" height="30" as="geometry" />
        </mxCell>
        
        <!-- Result Processing -->
        <mxCell id="result_processor" value="🔄 Result Processor&#xa;결과 통합 및 포맷팅&#xa;부분 실패 처리&#xa;재시도 로직&#xa;타임아웃 관리" style="rounded=1;whiteSpace=wrap;html=1;fillColor=#80CBC4;strokeColor=#00695C;strokeWidth=2;fontSize=11;" vertex="1" parent="1">
          <mxGeometry x="100" y="970" width="140" height="80" as="geometry" />
        </mxCell>
        
        <!-- Response Generation -->
        <mxCell id="response_generation" value="" style="rounded=1;whiteSpace=wrap;html=1;fillColor=#B2DFDB;strokeColor=#00695C;strokeWidth=2;dashed=1;" vertex="1" parent="1">
          <mxGeometry x="260" y="965" width="400" height="90" as="geometry" />
        </mxCell>
        
        <mxCell id="response_gen_title" value="📊 응답 생성" style="text;html=1;strokeColor=none;fillColor=none;align=center;verticalAlign=middle;whiteSpace=wrap;rounded=0;fontSize=12;fontStyle=1;fontColor=#00695C;" vertex="1" parent="1">
          <mxGeometry x="260" y="970" width="400" height="20" as="geometry" />
        </mxCell>
        
        <mxCell id="notion_response" value="📝 Notion Response&#xa;페이지 URL&#xa;생성 상태&#xa;메타데이터" style="rounded=1;whiteSpace=wrap;html=1;fillColor=#4DB6AC;strokeColor=#00695C;strokeWidth=1;fontSize=10;" vertex="1" parent="1">
          <mxGeometry x="275" y="995" width="90" height="50" as="geometry" />
        </mxCell>
        
        <mxCell id="jira_response" value="🎫 JIRA Response&#xa;Epic Keys&#xa;Task Keys&#xa;생성 통계" style="rounded=1;whiteSpace=wrap;html=1;fillColor=#4DB6AC;strokeColor=#00695C;strokeWidth=1;fontSize=10;" vertex="1" parent="1">
          <mxGeometry x="375" y="995" width="90" height="50" as="geometry" />
        </mxCell>
        
        <mxCell id="error_handler" value="❌ Error Handler&#xa;부분 실패 처리&#xa;재시도 로직&#xa;알림 발송" style="rounded=1;whiteSpace=wrap;html=1;fillColor=#26A69A;strokeColor=#00695C;strokeWidth=1;fontSize=10;" vertex="1" parent="1">
          <mxGeometry x="475" y="995" width="90" height="50" as="geometry" />
        </mxCell>
        
        <mxCell id="format_converter" value="🔧 Format Converter&#xa;다양한 출력 형식&#xa;JSON, XML, CSV&#xa;커스텀 템플릿" style="rounded=1;whiteSpace=wrap;html=1;fillColor=#26A69A;strokeColor=#00695C;strokeWidth=1;fontSize=10;" vertex="1" parent="1">
          <mxGeometry x="575" y="995" width="80" height="50" as="geometry" />
        </mxCell>
        
        <!-- User Notification -->
        <mxCell id="notification_system" value="" style="rounded=1;whiteSpace=wrap;html=1;fillColor=#B2DFDB;strokeColor=#00695C;strokeWidth=2;dashed=1;" vertex="1" parent="1">
          <mxGeometry x="680" y="965" width="340" height="90" as="geometry" />
        </mxCell>
        
        <mxCell id="notification_title" value="📱 사용자 알림" style="text;html=1;strokeColor=none;fillColor=none;align=center;verticalAlign=middle;whiteSpace=wrap;rounded=0;fontSize=12;fontStyle=1;fontColor=#00695C;" vertex="1" parent="1">
          <mxGeometry x="680" y="970" width="340" height="20" as="geometry" />
        </mxCell>
        
        <mxCell id="slack_notification" value="💬 Slack Message&#xa;처리 완료 알림&#xa;생성 항목 요약&#xa;직접 링크 버튼" style="rounded=1;whiteSpace=wrap;html=1;fillColor=#00897B;strokeColor=#00695C;strokeWidth=1;fontSize=10;" vertex="1" parent="1">
          <mxGeometry x="695" y="995" width="100" height="50" as="geometry" />
        </mxCell>
        
        <mxCell id="realtime_updates" value="📡 Real-time Updates&#xa;Socket.IO&#xa;처리 진행 상황&#xa;실시간 피드백" style="rounded=1;whiteSpace=wrap;html=1;fillColor=#00897B;strokeColor=#00695C;strokeWidth=1;fontSize=10;" vertex="1" parent="1">
          <mxGeometry x="805" y="995" width="100" height="50" as="geometry" />
        </mxCell>
        
        <mxCell id="email_notification" value="📧 Email Notification&#xa;중요 이벤트 알림&#xa;일일 요약&#xa;오류 보고서" style="rounded=1;whiteSpace=wrap;html=1;fillColor=#26A69A;strokeColor=#00695C;strokeWidth=1;fontSize=10;" vertex="1" parent="1">
          <mxGeometry x="915" y="995" width="95" height="50" as="geometry" />
        </mxCell>
        
        <!-- Performance Analytics -->
        <mxCell id="performance_analytics" value="📊 Performance Analytics&#xa;&#xa;⚡ 평균 처리 시간: 60-90초&#xa;• 입력 처리: ~2초&#xa;• AI 분석: ~45초&#xa;• 외부 연동: ~15초&#xa;• 응답 생성: ~3초&#xa;&#xa;📈 시스템 지표&#xa;• 성공률: 98.5%&#xa;• 동시 처리: 5세션&#xa;• 오류율: 1.5%&#xa;• 사용자 만족도: 4.7/5" style="rounded=1;whiteSpace=wrap;html=1;fillColor=#E0F7FA;strokeColor=#00695C;strokeWidth=2;fontSize=10;align=left;verticalAlign=top;" vertex="1" parent="1">
          <mxGeometry x="1040" y="965" width="220" height="120" as="geometry" />
        </mxCell>
        
        <!-- 9. Monitoring & Logging Layer -->
        <mxCell id="monitoring_layer" value="" style="rounded=1;whiteSpace=wrap;html=1;fillColor=#EFEBE9;strokeColor=#5D4037;strokeWidth=3;dashed=1;dashPattern=8 8;" vertex="1" parent="1">
          <mxGeometry x="1320" y="920" width="940" height="180" as="geometry" />
        </mxCell>
        
        <mxCell id="monitoring_title" value="📊 모니터링 및 로깅 레이어" style="text;html=1;strokeColor=none;fillColor=none;align=center;verticalAlign=middle;whiteSpace=wrap;rounded=0;fontSize=16;fontStyle=1;fontColor=#5D4037;fontFamily=Helvetica;" vertex="1" parent="1">
          <mxGeometry x="1320" y="930" width="940" height="30" as="geometry" />
        </mxCell>
        
        <!-- Logging System -->
        <mxCell id="logging_system" value="" style="rounded=1;whiteSpace=wrap;html=1;fillColor=#D7CCC8;strokeColor=#5D4037;strokeWidth=2;dashed=1;" vertex="1" parent="1">
          <mxGeometry x="1340" y="965" width="300" height="90" as="geometry" />
        </mxCell>
        
        <mxCell id="logging_title" value="📜 로깅 시스템" style="text;html=1;strokeColor=none;fillColor=none;align=center;verticalAlign=middle;whiteSpace=wrap;rounded=0;fontSize=12;fontStyle=1;fontColor=#5D4037;" vertex="1" parent="1">
          <mxGeometry x="1340" y="970" width="300" height="20" as="geometry" />
        </mxCell>
        
        <mxCell id="winston_logger" value="📜 Winston Logger&#xa;구조화된 로깅&#xa;레벨별 분류&#xa;로테이션 관리" style="rounded=1;whiteSpace=wrap;html=1;fillColor=#BCAAA4;strokeColor=#5D4037;strokeWidth=1;fontSize=10;" vertex="1" parent="1">
          <mxGeometry x="1355" y="995" width="90" height="50" as="geometry" />
        </mxCell>
        
        <mxCell id="error_tracking" value="🚨 Error Tracking&#xa;Sentry 연동&#xa;스택 추적&#xa;자동 분류" style="rounded=1;whiteSpace=wrap;html=1;fillColor=#A1887F;strokeColor=#5D4037;strokeWidth=1;fontSize=10;" vertex="1" parent="1">
          <mxGeometry x="1455" y="995" width="90" height="50" as="geometry" />
        </mxCell>
        
        <mxCell id="audit_log" value="🔍 Audit Log&#xa;사용자 행동&#xa;보안 이벤트&#xa;컴플라이언스" style="rounded=1;whiteSpace=wrap;html=1;fillColor=#8D6E63;strokeColor=#5D4037;strokeWidth=1;fontSize=10;" vertex="1" parent="1">
          <mxGeometry x="1555" y="995" width="80" height="50" as="geometry" />
        </mxCell>
        
        <!-- Performance Monitoring -->
        <mxCell id="performance_monitoring" value="" style="rounded=1;whiteSpace=wrap;html=1;fillColor=#D7CCC8;strokeColor=#5D4037;strokeWidth=2;dashed=1;" vertex="1" parent="1">
          <mxGeometry x="1660" y="965" width="300" height="90" as="geometry" />
        </mxCell>
        
        <mxCell id="perf_monitoring_title" value="📈 성능 모니터링" style="text;html=1;strokeColor=none;fillColor=none;align=center;verticalAlign=middle;whiteSpace=wrap;rounded=0;fontSize=12;fontStyle=1;fontColor=#5D4037;" vertex="1" parent="1">
          <mxGeometry x="1660" y="970" width="300" height="20" as="geometry" />
        </mxCell>
        
        <mxCell id="metrics_collector" value="📊 Metrics Collector&#xa;Prometheus&#xa;커스텀 메트릭&#xa;실시간 수집" style="rounded=1;whiteSpace=wrap;html=1;fillColor=#A1887F;strokeColor=#5D4037;strokeWidth=1;fontSize=10;" vertex="1" parent="1">
          <mxGeometry x="1675" y="995" width="90" height="50" as="geometry" />
        </mxCell>
        
        <mxCell id="health_monitor" value="🏥 Health Monitor&#xa;서비스 상태&#xa;의존성 체크&#xa;자동 복구" style="rounded=1;whiteSpace=wrap;html=1;fillColor=#8D6E63;strokeColor=#5D4037;strokeWidth=1;fontSize=10;" vertex="1" parent="1">
          <mxGeometry x="1775" y="995" width="90" height="50" as="geometry" />
        </mxCell>
        
        <mxCell id="alerting_system" value="🚨 Alerting System&#xa;임계값 모니터링&#xa;자동 알림 발송&#xa;에스컬레이션" style="rounded=1;whiteSpace=wrap;html=1;fillColor=#795548;strokeColor=#5D4037;strokeWidth=1;fontSize=10;" vertex="1" parent="1">
          <mxGeometry x="1875" y="995" width="80" height="50" as="geometry" />
        </mxCell>
        
        <!-- APM & Observability -->
        <mxCell id="apm_observability" value="🔭 APM & Observability&#xa;&#xa;📊 Application Performance&#xa;• 응답 시간 분석&#xa;• 병목 지점 식별&#xa;• 트랜잭션 추적&#xa;&#xa;🔍 Distributed Tracing&#xa;• OpenTelemetry&#xa;• Jaeger 연동&#xa;• 마이크로서비스 추적&#xa;&#xa;📈 Business Metrics&#xa;• 사용자 참여도&#xa;• 기능별 사용률&#xa;• ROI 측정" style="rounded=1;whiteSpace=wrap;html=1;fillColor=#EFEBE9;strokeColor=#5D4037;strokeWidth=2;fontSize=9;align=left;verticalAlign=top;" vertex="1" parent="1">
          <mxGeometry x="1980" y="965" width="180" height="120" as="geometry" />
        </mxCell>
        
        <!-- Data Flow Arrows -->
        <!-- 사용자 → Slack -->
        <mxCell id="flow1" value="" style="endArrow=classic;html=1;rounded=0;strokeColor=#1976D2;strokeWidth=3;exitX=1;exitY=0.5;exitDx=0;exitDy=0;entryX=0;entryY=0.5;entryDx=0;entryDy=0;" edge="1" parent="1" source="user" target="slack_bot">
          <mxGeometry width="50" height="50" relative="1" as="geometry">
            <mxPoint x="380" y="400" as="sourcePoint" />
            <mxPoint x="430" y="350" as="targetPoint" />
          </mxGeometry>
        </mxCell>
        
        <!-- Slack → Network -->
        <mxCell id="flow2" value="" style="endArrow=classic;html=1;rounded=0;strokeColor=#F57C00;strokeWidth=3;exitX=1;exitY=0.5;exitDx=0;exitDy=0;entryX=0;entryY=0.5;entryDx=0;entryDy=0;" edge="1" parent="1" source="webhook_sender" target="ngrok_tunnel">
          <mxGeometry width="50" height="50" relative="1" as="geometry">
            <mxPoint x="700" y="260" as="sourcePoint" />
            <mxPoint x="820" y="190" as="targetPoint" />
          </mxGeometry>
        </mxCell>
        
        <!-- Network → Backend -->
        <mxCell id="flow3" value="" style="endArrow=classic;html=1;rounded=0;strokeColor=#689F38;strokeWidth=3;exitX=0.5;exitY=1;exitDx=0;exitDy=0;entryX=0.5;entryY=0;entryDx=0;entryDy=0;" edge="1" parent="1" source="ngrok_tunnel" target="express_server">
          <mxGeometry width="50" height="50" relative="1" as="geometry">
            <mxPoint x="910" y="240" as="sourcePoint" />
            <mxPoint x="170" y="380" as="targetPoint" />
            <Array as="points">
              <mxPoint x="910" y="320" />
              <mxPoint x="170" y="320" />
            </Array>
          </mxGeometry>
        </mxCell>
        
        <!-- Backend → AI -->
        <mxCell id="flow4" value="🔄 AI Request" style="endArrow=classic;html=1;rounded=0;strokeColor=#7B1FA2;strokeWidth=3;exitX=1;exitY=0.5;exitDx=0;exitDy=0;entryX=0;entryY=0.5;entryDx=0;entryDy=0;labelBackgroundColor=#FFFFFF;fontSize=12;fontStyle=1;" edge="1" parent="1" source="context_builder" target="ai_server">
          <mxGeometry width="50" height="50" relative="1" as="geometry">
            <mxPoint x="980" y="520" as="sourcePoint" />
            <mxPoint x="1060" y="190" as="targetPoint" />
            <Array as="points">
              <mxPoint x="1040" y="520" />
              <mxPoint x="1040" y="190" />
            </Array>
          </mxGeometry>
        </mxCell>
        
        <!-- AI Pipeline Flow -->
        <mxCell id="flow5" value="" style="endArrow=classic;html=1;rounded=0;strokeColor=#FFA000;strokeWidth=2;exitX=1;exitY=0.5;exitDx=0;exitDy=0;entryX=0;entryY=0.5;entryDx=0;entryDy=0;" edge="1" parent="1" source="ai_server" target="stt_engine">
          <mxGeometry width="50" height="50" relative="1" as="geometry">
            <mxPoint x="1230" y="190" as="sourcePoint" />
            <mxPoint x="1250" y="190" as="targetPoint" />
          </mxGeometry>
        </mxCell>
        
        <mxCell id="flow6" value="" style="endArrow=classic;html=1;rounded=0;strokeColor=#FFA000;strokeWidth=2;exitX=1;exitY=0.5;exitDx=0;exitDy=0;entryX=0;entryY=0.5;entryDx=0;entryDy=0;" edge="1" parent="1" source="stt_engine" target="llm_engine">
          <mxGeometry width="50" height="50" relative="1" as="geometry">
            <mxPoint x="1380" y="190" as="sourcePoint" />
            <mxPoint x="1400" y="190" as="targetPoint" />
          </mxGeometry>
        </mxCell>
        
        <mxCell id="flow7" value="" style="endArrow=classic;html=1;rounded=0;strokeColor=#FFA000;strokeWidth=2;exitX=0.5;exitY=1;exitDx=0;exitDy=0;entryX=0.5;entryY=0;entryDx=0;entryDy=0;" edge="1" parent="1" source="llm_engine" target="prd_generator">
          <mxGeometry width="50" height="50" relative="1" as="geometry">
            <mxPoint x="1465" y="240" as="sourcePoint" />
            <mxPoint x="1155" y="290" as="targetPoint" />
            <Array as="points">
              <mxPoint x="1465" y="270" />
              <mxPoint x="1155" y="270" />
            </Array>
          </mxGeometry>
        </mxCell>
        
        <mxCell id="flow8" value="" style="endArrow=classic;html=1;rounded=0;strokeColor=#FFA000;strokeWidth=2;exitX=1;exitY=0.5;exitDx=0;exitDy=0;entryX=0;entryY=0.5;entryDx=0;entryDy=0;" edge="1" parent="1" source="prd_generator" target="task_generator">
          <mxGeometry width="50" height="50" relative="1" as="geometry">
            <mxPoint x="1210" y="330" as="sourcePoint" />
            <mxPoint x="1220" y="330" as="targetPoint" />
          </mxGeometry>
        </mxCell>
        
        <mxCell id="flow9" value="" style="endArrow=classic;html=1;rounded=0;strokeColor=#FFA000;strokeWidth=2;exitX=1;exitY=0.5;exitDx=0;exitDy=0;entryX=0;entryY=0.5;entryDx=0;entryDy=0;" edge="1" parent="1" source="task_generator" target="subtask_generator">
          <mxGeometry width="50" height="50" relative="1" as="geometry">
            <mxPoint x="1330" y="330" as="sourcePoint" />
            <mxPoint x="1340" y="330" as="targetPoint" />
          </mxGeometry>
        </mxCell>
        
        <mxCell id="flow10" value="" style="endArrow=classic;html=1;rounded=0;strokeColor=#FFA000;strokeWidth=2;exitX=1;exitY=0.5;exitDx=0;exitDy=0;entryX=0;entryY=0.5;entryDx=0;entryDy=0;" edge="1" parent="1" source="subtask_generator" target="assignment_engine">
          <mxGeometry width="50" height="50" relative="1" as="geometry">
            <mxPoint x="1450" y="330" as="sourcePoint" />
            <mxPoint x="1460" y="330" as="targetPoint" />
          </mxGeometry>
        </mxCell>
        
        <mxCell id="flow11" value="" style="endArrow=classic;html=1;rounded=0;strokeColor=#FFA000;strokeWidth=2;exitX=0.5;exitY=1;exitDx=0;exitDy=0;entryX=0.5;entryY=0;entryDx=0;entryDy=0;" edge="1" parent="1" source="assignment_engine" target="quality_validator">
          <mxGeometry width="50" height="50" relative="1" as="geometry">
            <mxPoint x="1520" y="370" as="sourcePoint" />
            <mxPoint x="1155" y="375" as="targetPoint" />
            <Array as="points">
              <mxPoint x="1520" y="350" />
              <mxPoint x="1155" y="350" />
            </Array>
          </mxGeometry>
        </mxCell>
        
        <mxCell id="flow12" value="" style="endArrow=classic;html=1;rounded=0;strokeColor=#FFA000;strokeWidth=2;exitX=1;exitY=0.5;exitDx=0;exitDy=0;entryX=0;entryY=0.5;entryDx=0;entryDy=0;" edge="1" parent="1" source="quality_validator" target="json_formatter">
          <mxGeometry width="50" height="50" relative="1" as="geometry">
            <mxPoint x="1210" y="405" as="sourcePoint" />
            <mxPoint x="1220" y="405" as="targetPoint" />
          </mxGeometry>
        </mxCell>
        
        <mxCell id="flow13" value="" style="endArrow=classic;html=1;rounded=0;strokeColor=#FFA000;strokeWidth=2;exitX=1;exitY=0.5;exitDx=0;exitDy=0;entryX=0;entryY=0.5;entryDx=0;entryDy=0;" edge="1" parent="1" source="json_formatter" target="response_builder">
          <mxGeometry width="50" height="50" relative="1" as="geometry">
            <mxPoint x="1330" y="405" as="sourcePoint" />
            <mxPoint x="1340" y="405" as="targetPoint" />
          </mxGeometry>
        </mxCell>
        
        <!-- AI → Database -->
        <mxCell id="flow14" value="💾 Data Storage" style="endArrow=classic;html=1;rounded=0;strokeColor=#388E3C;strokeWidth=3;exitX=0;exitY=1;exitDx=0;exitDy=0;entryX=1;entryY=0;entryDx=0;entryDy=0;labelBackgroundColor=#FFFFFF;fontSize=12;fontStyle=1;" edge="1" parent="1" source="response_builder" target="prisma_orm">
          <mxGeometry width="50" height="50" relative="1" as="geometry">
            <mxPoint x="1340" y="440" as="sourcePoint" />
            <mxPoint x="360" y="710" as="targetPoint" />
            <Array as="points">
              <mxPoint x="1340" y="640" />
              <mxPoint x="360" y="640" />
            </Array>
          </mxGeometry>
        </mxCell>
        
        <!-- AI → External Integrations -->
        <mxCell id="flow15" value="🔗 External API" style="endArrow=classic;html=1;rounded=0;strokeColor=#C2185B;strokeWidth=3;exitX=0.5;exitY=1;exitDx=0;exitDy=0;entryX=0.5;entryY=0;entryDx=0;entryDy=0;labelBackgroundColor=#FFFFFF;fontSize=12;fontStyle=1;" edge="1" parent="1" source="response_builder" target="notion_integration">
          <mxGeometry width="50" height="50" relative="1" as="geometry">
            <mxPoint x="1395" y="440" as="sourcePoint" />
            <mxPoint x="1270" y="710" as="targetPoint" />
            <Array as="points">
              <mxPoint x="1395" y="680" />
              <mxPoint x="1270" y="680" />
            </Array>
          </mxGeometry>
        </mxCell>
        
        <mxCell id="flow16" value="" style="endArrow=classic;html=1;rounded=0;strokeColor=#C2185B;strokeWidth=3;exitX=0.5;exitY=1;exitDx=0;exitDy=0;entryX=0.5;entryY=0;entryDx=0;entryDy=0;" edge="1" parent="1" source="response_builder" target="jira_integration">
          <mxGeometry width="50" height="50" relative="1" as="geometry">
            <mxPoint x="1395" y="440" as="sourcePoint" />
            <mxPoint x="1670" y="710" as="targetPoint" />
            <Array as="points">
              <mxPoint x="1395" y="680" />
              <mxPoint x="1670" y="680" />
            </Array>
          </mxGeometry>
        </mxCell>
        
        <!-- Integrations → Response -->
        <mxCell id="flow17" value="📝 Integration Results" style="endArrow=classic;html=1;rounded=0;strokeColor=#00695C;strokeWidth=3;exitX=0;exitY=1;exitDx=0;exitDy=0;entryX=1;entryY=0;entryDx=0;entryDy=0;labelBackgroundColor=#FFFFFF;fontSize=12;fontStyle=1;" edge="1" parent="1" source="notion_integration" target="result_processor">
          <mxGeometry width="50" height="50" relative="1" as="geometry">
            <mxPoint x="1080" y="860" as="sourcePoint" />
            <mxPoint x="240" y="970" as="targetPoint" />
            <Array as="points">
              <mxPoint x="1080" y="900" />
              <mxPoint x="240" y="900" />
            </Array>
          </mxGeometry>
        </mxCell>
        
        <mxCell id="flow18" value="" style="endArrow=classic;html=1;rounded=0;strokeColor=#00695C;strokeWidth=3;exitX=0;exitY=1;exitDx=0;exitDy=0;entryX=1;entryY=0;entryDx=0;entryDy=0;" edge="1" parent="1" source="jira_integration" target="result_processor">
          <mxGeometry width="50" height="50" relative="1" as="geometry">
            <mxPoint x="1480" y="860" as="sourcePoint" />
            <mxPoint x="240" y="970" as="targetPoint" />
            <Array as="points">
              <mxPoint x="1480" y="900" />
              <mxPoint x="240" y="900" />
            </Array>
          </mxGeometry>
        </mxCell>
        
        <!-- Response → Slack (사용자에게 돌아가는 플로우) -->
        <mxCell id="flow19" value="📱 User Notification" style="endArrow=classic;html=1;rounded=0;strokeColor=#00695C;strokeWidth=3;exitX=0;exitY=0;exitDx=0;exitDy=0;entryX=0;entryY=1;entryDx=0;entryDy=0;labelBackgroundColor=#FFFFFF;fontSize=12;fontStyle=1;" edge="1" parent="1" source="slack_notification" target="slack_bot">
          <mxGeometry width="50" height="50" relative="1" as="geometry">
            <mxPoint x="695" y="995" as="sourcePoint" />
            <mxPoint x="440" y="210" as="targetPoint" />
            <Array as="points">
              <mxPoint x="60" y="995" />
              <mxPoint x="60" y="50" />
              <mxPoint x="440" y="50" />
            </Array>
          </mxGeometry>
        </mxCell>
        
        <!-- Database Connections -->
        <mxCell id="db_conn1" value="" style="endArrow=classic;html=1;rounded=0;strokeColor=#388E3C;strokeWidth=2;exitX=0;exitY=0.5;exitDx=0;exitDy=0;entryX=1;entryY=0.5;entryDx=0;entryDy=0;" edge="1" parent="1" source="prisma_orm" target="postgresql">
          <mxGeometry width="50" height="50" relative="1" as="geometry">
            <mxPoint x="240" y="750" as="sourcePoint" />
            <mxPoint x="220" y="750" as="targetPoint" />
          </mxGeometry>
        </mxCell>
        
        <!-- Monitoring Connections (점선) -->
        <mxCell id="monitor1" value="" style="endArrow=classic;html=1;rounded=0;strokeColor=#5D4037;strokeWidth=2;dashed=1;dashPattern=5 5;exitX=1;exitY=0;exitDx=0;exitDy=0;entryX=0;entryY=1;entryDx=0;entryDy=0;" edge="1" parent="1" source="express_server" target="winston_logger">
          <mxGeometry width="50" height="50" relative="1" as="geometry">
            <mxPoint x="240" y="390" as="sourcePoint" />
            <mxPoint x="1355" y="1045" as="targetPoint" />
            <Array as="points">
              <mxPoint x="1300" y="390" />
              <mxPoint x="1300" y="1045" />
            </Array>
          </mxGeometry>
        </mxCell>
        
        <mxCell id="monitor2" value="" style="endArrow=classic;html=1;rounded=0;strokeColor=#5D4037;strokeWidth=2;dashed=1;dashPattern=5 5;exitX=0;exitY=1;exitDx=0;exitDy=0;entryX=0;entryY=0;entryDx=0;entryDy=0;" edge="1" parent="1" source="ai_server" target="metrics_collector">
          <mxGeometry width="50" height="50" relative="1" as="geometry">
            <mxPoint x="1080" y="230" as="sourcePoint" />
            <mxPoint x="1675" y="995" as="targetPoint" />
            <Array as="points">
              <mxPoint x="1080" y="895" />
              <mxPoint x="1675" y="895" />
            </Array>
          </mxGeometry>
        </mxCell>
        
        <!-- 범례 및 기술 정보 -->
        <mxCell id="legend_background" value="" style="rounded=1;whiteSpace=wrap;html=1;fillColor=#F5F5F5;strokeColor=#9E9E9E;strokeWidth=2;dashed=1;" vertex="1" parent="1">
          <mxGeometry x="80" y="1140" width="2180" height="200" as="geometry" />
        </mxCell>
        
        <mxCell id="legend_title" value="📋 시스템 정보 및 범례" style="text;html=1;strokeColor=none;fillColor=none;align=center;verticalAlign=middle;whiteSpace=wrap;rounded=0;fontSize=18;fontStyle=1;fontColor=#333333;" vertex="1" parent="1">
          <mxGeometry x="80" y="1150" width="2180" height="30" as="geometry" />
        </mxCell>
        
        <!-- 기술 스택 정보 -->
        <mxCell id="tech_stack_info" value="🚀 기술 스택&#xa;&#xa;Frontend: Slack Bot, React Dashboard&#xa;Backend: Node.js, Express.js, TypeScript&#xa;AI Engine: Python, FastAPI, Qwen3-32B, Whisper Large-v3&#xa;Database: PostgreSQL 15.0, Prisma ORM, Redis&#xa;Cloud: RunPod A100 80GB GPU, Ubuntu 22.04&#xa;Integration: Notion API, JIRA REST API v3&#xa;Monitoring: Winston, Prometheus, Sentry&#xa;Network: ngrok HTTPS tunneling, Socket.IO&#xa;Security: OAuth 2.0, JWT, SSL/TLS" style="rounded=1;whiteSpace=wrap;html=1;fillColor=#E8F5E8;strokeColor=#2E7D32;strokeWidth=2;fontSize=11;align=left;verticalAlign=top;" vertex="1" parent="1">
          <mxGeometry x="100" y="1190" width="300" height="140" as="geometry" />
        </mxCell>
        
        <!-- 성능 지표 -->
        <mxCell id="performance_specs" value="⚡ 성능 지표&#xa;&#xa;평균 처리 시간: 60-90초&#xa;• 사용자 입력 처리: ~2초&#xa;• AI 분석 (STT + LLM): ~45초&#xa;• 외부 연동 (병렬): ~15초&#xa;• 응답 생성 및 알림: ~3초&#xa;&#xa;시스템 성능:&#xa;• 성공률: 98.5%&#xa;• 동시 처리 세션: 5개&#xa;• GPU 사용률: 70% (A100 80GB)&#xa;• 메모리 사용량: 25GB VRAM&#xa;• 응답 시간: 평균 2.3초 (API)&#xa;• 오류율: 1.5%&#xa;• 사용자 만족도: 4.7/5" style="rounded=1;whiteSpace=wrap;html=1;fillColor=#FFF8E1;strokeColor=#F57F17;strokeWidth=2;fontSize=11;align=left;verticalAlign=top;" vertex="1" parent="1">
          <mxGeometry x="420" y="1190" width="300" height="140" as="geometry" />
        </mxCell>
        
        <!-- 시스템 특징 -->
        <mxCell id="system_features" value="✨ 시스템 특징&#xa;&#xa;🏗️ 아키텍처:&#xa;• 9-레이어 마이크로서비스 아키텍처&#xa;• 멀티테넌트 지원 (dev-tenant)&#xa;• 이벤트 기반 비동기 처리&#xa;• 확장 가능한 모듈 설계&#xa;&#xa;🔒 보안:&#xa;• OAuth 2.0 인증 (Notion, JIRA)&#xa;• JWT 토큰 기반 세션 관리&#xa;• SSL/TLS 암호화 통신&#xa;• 토큰 자동 갱신 및 암호화 저장&#xa;&#xa;📊 모니터링:&#xa;• 실시간 성능 추적&#xa;• 분산 추적 (OpenTelemetry)&#xa;• 자동 오류 감지 및 알림&#xa;• 사용자 행동 분석" style="rounded=1;whiteSpace=wrap;html=1;fillColor=#E3F2FD;strokeColor=#1976D2;strokeWidth=2;fontSize=11;align=left;verticalAlign=top;" vertex="1" parent="1">
          <mxGeometry x="740" y="1190" width="300" height="140" as="geometry" />
        </mxCell>
        
        <!-- 데이터 플로우 설명 -->
        <mxCell id="data_flow_explanation" value="🔄 데이터 플로우&#xa;&#xa;1️⃣ 사용자 입력 → Slack Bot&#xa;2️⃣ Slack Webhook → ngrok → 백엔드&#xa;3️⃣ 미들웨어 → 검증 → 세션 관리&#xa;4️⃣ AI 요청 → RunPod A100 GPU&#xa;5️⃣ STT → LLM → TaskMaster 파이프라인&#xa;6️⃣ PRD → Task → Subtask 생성&#xa;7️⃣ 결과 검증 → JSON 포맷팅&#xa;8️⃣ 외부 연동 (Notion + JIRA)&#xa;9️⃣ 결과 통합 → 사용자 알림&#xa;🔟 모니터링 → 로깅 → 성능 분석&#xa;&#xa;병렬 처리:&#xa;• 외부 API 호출 동시 실행&#xa;• 비동기 결과 수집 및 통합&#xa;• 부분 실패 시 graceful degradation" style="rounded=1;whiteSpace=wrap;html=1;fillColor=#F3E5F5;strokeColor=#7B1FA2;strokeWidth=2;fontSize=11;align=left;verticalAlign=top;" vertex="1" parent="1">
          <mxGeometry x="1060" y="1190" width="300" height="140" as="geometry" />
        </mxCell>
        
        <!-- 확장성 및 미래 계획 -->
        <mxCell id="scalability_future" value="🚀 확장성 및 미래 계획&#xa;&#xa;🔮 추가 예정 연동:&#xa;• GitHub (이슈, PR 자동 생성)&#xa;• Confluence (문서 자동화)&#xa;• Trello (칸반 보드 연동)&#xa;• Discord (팀 알림 시스템)&#xa;• Linear (이슈 트래킹)&#xa;&#xa;⚡ 성능 최적화:&#xa;• GPU 클러스터링 (다중 A100)&#xa;• 모델 양자화 개선&#xa;• 캐싱 레이어 확장&#xa;• CDN 도입 (정적 리소스)&#xa;&#xa;📊 인텔리전스 강화:&#xa;• 사용자 패턴 학습&#xa;• 예측적 업무 생성&#xa;• 개인화된 추천 시스템" style="rounded=1;whiteSpace=wrap;html=1;fillColor=#FCE4EC;strokeColor=#C2185B;strokeWidth=2;fontSize=11;align=left;verticalAlign=top;" vertex="1" parent="1">
          <mxGeometry x="1380" y="1190" width="300" height="140" as="geometry" />
        </mxCell>
        
        <!-- 범례 -->
        <mxCell id="legend_symbols" value="📋 범례 (Legend)&#xa;&#xa;━━━ 주요 데이터 플로우 (Primary Data Flow)&#xa;┅┅┅ 모니터링 연결 (Monitoring Connection)&#xa;🔵 사용자 레이어  🟠 Slack 레이어  🟢 네트워크 레이어&#xa;🟣 백엔드 레이어  🟡 AI 레이어  🟢 데이터베이스 레이어&#xa;🔴 외부 연동 레이어  🟦 응답 레이어  🟤 모니터링 레이어&#xa;&#xa;🎯 핵심 컴포넌트:&#xa;• Express.js (백엔드 서버)&#xa;• Qwen3-32B (LLM 엔진)&#xa;• PostgreSQL (주 데이터베이스)&#xa;• Notion/JIRA (외부 연동)&#xa;• Winston (로깅 시스템)" style="rounded=1;whiteSpace=wrap;html=1;fillColor=#EFEBE9;strokeColor=#5D4037;strokeWidth=2;fontSize=11;align=left;verticalAlign=top;" vertex="1" parent="1">
          <mxGeometry x="1700" y="1190" width="300" height="140" as="geometry" />
        </mxCell>
        
        <!-- 연락처 및 버전 정보 -->
        <mxCell id="contact_version" value="📞 시스템 정보&#xa;&#xa;프로젝트: TtalKkak AI 프로젝트 관리&#xa;버전: v1.0.0&#xa;아키텍처 버전: 2025.01.15&#xa;마지막 업데이트: 2025년 1월 15일&#xa;&#xa;🏗️ 설계 원칙:&#xa;• 확장 가능성 (Scalability)&#xa;• 신뢰성 (Reliability)&#xa;• 관찰 가능성 (Observability)&#xa;• 보안성 (Security)&#xa;• 사용자 경험 (UX)&#xa;&#xa;📊 메트릭 대시보드:&#xa;• Grafana 대시보드 구축 예정&#xa;• 실시간 성능 모니터링&#xa;• 사용자 행동 분석 보드" style="rounded=1;whiteSpace=wrap;html=1;fillColor=#E0F2F1;strokeColor=#00695C;strokeWidth=2;fontSize=11;align=left;verticalAlign=top;" vertex="1" parent="1">
          <mxGeometry x="2020" y="1190" width="220" height="140" as="geometry" />
        </mxCell>
        
      </root>
    </mxGraphModel>
  </diagram>
</mxfile></mxCell>